<?xml version="1.0" encoding="UTF-8"?>
<svg version="1.1" xmlns="http://www.w3.org/2000/svg" width="800" height="800">
<path d="M0 0 C36.3408148 -0.0458186 72.68162453 -0.08104009 109.02246229 -0.10213066 C113.3168141 -0.10463195 117.61116585 -0.10722061 121.90551758 -0.10986328 C122.76041398 -0.1103879 123.61531039 -0.11091252 124.49611274 -0.11145304 C138.32247261 -0.12014595 152.14881577 -0.13590978 165.97516575 -0.15430559 C180.17157327 -0.17303566 194.36797207 -0.18412329 208.56439143 -0.18817699 C217.31810736 -0.19091561 226.07177607 -0.19955257 234.82547746 -0.21583293 C240.83539423 -0.22643819 246.84528674 -0.22959264 252.85521217 -0.22700275 C256.31803566 -0.22572696 259.78077688 -0.22762601 263.24358559 -0.23841095 C267.0094756 -0.24841613 270.77516642 -0.24594849 274.5410614 -0.24050903 C275.61989662 -0.24633472 276.69873185 -0.2521604 277.81025904 -0.25816262 C285.36361565 -0.22883572 292.56727197 0.69691283 300 2 C301.84218565 2.29979312 303.68459172 2.59823939 305.52734375 2.89453125 C315.36482927 4.54607337 325.14271595 6.3695552 334.875 8.5625 C335.75921631 8.76012939 336.64343262 8.95775879 337.55444336 9.16137695 C343.16612231 10.45884716 348.56366024 12.10709068 354 14 C355.75882288 14.58811267 357.51795272 15.17530794 359.27734375 15.76171875 C398.91911303 29.17303788 435.75287831 50.58447493 464 82 C464 82.66 464 83.32 464 84 C464.66 84 465.32 84 466 84 C467.4432174 85.71569206 468.8038685 87.50112283 470.125 89.3125 C470.5180835 89.8499585 470.91116699 90.38741699 471.31616211 90.94116211 C472.1365218 92.0638374 472.95443316 93.1883054 473.77001953 94.31445312 C474.95319363 95.93585725 476.1616791 97.53869851 477.37109375 99.140625 C478.09425781 100.10484375 478.81742188 101.0690625 479.5625 102.0625 C480.22378906 102.94035156 480.88507813 103.81820312 481.56640625 104.72265625 C483 107 483 107 483 110 C483.66 110 484.32 110 485 110 C486.46683251 112.6831566 487.92353026 115.37104767 489.375 118.0625 C489.7875 118.81466797 490.2 119.56683594 490.625 120.34179688 C493.04093704 124.84245377 494.79914464 129.03162592 496 134 C496.96824707 134.03758423 496.96824707 134.03758423 497.95605469 134.07592773 C500.88755894 134.19214433 503.81876217 134.31475442 506.75 134.4375 C507.76578125 134.47681641 508.7815625 134.51613281 509.828125 134.55664062 C510.8078125 134.59853516 511.7875 134.64042969 512.796875 134.68359375 C514.14797363 134.73858032 514.14797363 134.73858032 515.52636719 134.79467773 C517.81016707 134.98424304 519.78671875 135.44000668 522 136 C523.7534584 136.17671181 525.51084468 136.31626351 527.26953125 136.4296875 C528.31238281 136.50131104 529.35523438 136.57293457 530.4296875 136.64672852 C531.54601562 136.72205811 532.66234375 136.7973877 533.8125 136.875 C545.43112697 137.70687678 556.91348763 139.05569014 568.4453125 140.67236328 C571.95085044 141.12194584 575.46486707 141.43752411 578.98632812 141.73413086 C581 142 581 142 583 143 C584.89970463 143.26808796 586.80631993 143.48792652 588.71484375 143.68359375 C590.45797852 143.86825195 590.45797852 143.86825195 592.23632812 144.05664062 C594.66859042 144.30692619 597.10088126 144.55693458 599.53320312 144.80664062 C605.93025431 145.48463671 612.21906149 146.33365294 618.53637695 147.54711914 C622.05455607 148.19385606 625.57035092 148.59785788 629.125 149 C634.86116379 149.67912299 640.386075 150.63904849 646 152 C649.3 152.66 652.6 153.32 656 154 C656 195.91 656 237.82 656 281 C654.35 280.34 652.7 279.68 651 279 C650.67 278.01 650.34 277.02 650 276 C647.99983534 274.79117904 647.99983534 274.79117904 646 274 C646 273.34 646 272.68 646 272 C645.34 272 644.68 272 644 272 C642.5546875 270.53125 642.5546875 270.53125 640.875 268.5 C638.35742098 265.53322639 635.77831024 262.72425751 633 260 C630.46185201 257.50060236 628.05871697 254.96218208 625.75 252.25 C622.16717374 248.07278781 618.28694872 244.22823376 614.35058594 240.38769531 C610.99909921 237.09357438 608.00489599 233.61931561 605 230 C603.35580815 228.31115758 601.6884671 226.64457728 600 225 C599.04332216 224.056951 598.08763061 223.11290064 597.1328125 222.16796875 C596.64369385 221.68400635 596.1545752 221.20004395 595.65063477 220.70141602 C591.25301757 216.33757793 587.00262143 211.94794359 583 207.21484375 C579.59298393 203.44183962 575.92281189 199.9205966 572.26586914 196.39086914 C570.80764539 194.96337628 569.39916323 193.48542743 568 192 C568 191.34 568 190.68 568 190 C567.34 190 566.68 190 566 190 C565.15009222 188.94575898 564.34497411 187.85521565 563.5625 186.75 C559.60856032 181.95500224 554.77941248 180.76546894 549 179 C547.74590781 178.51035444 546.49544841 178.0112321 545.25 177.5 C539.00234936 175.14432845 532.45921743 173.65755885 526 172 C524.85789062 171.69578125 523.71578125 171.3915625 522.5390625 171.078125 C521.49492188 170.80484375 520.45078125 170.5315625 519.375 170.25 C517.99441406 169.88648438 517.99441406 169.88648438 516.5859375 169.515625 C513.9862208 168.99725249 511.64321394 168.90457711 509 169 C509.92229192 174.71036063 510.85092688 180.40545557 512.0625 186.0625 C513.84843918 194.85546238 514.15704543 203.73848511 514.16796875 212.6875 C514.17129715 213.67008789 514.17462555 214.65267578 514.17805481 215.66503906 C514.18308157 217.73225441 514.18546446 219.79947776 514.18530273 221.86669922 C514.18747522 224.96466104 514.20563863 228.0622578 514.22460938 231.16015625 C514.25928454 243.52376677 513.89682162 255.76221507 512 268 C511.67 268.33 511.34 268.66 511 269 C510.52763563 271.56039538 510.09702131 274.11697051 509.6875 276.6875 C508.36009377 284.66635651 506.41262504 292.27225179 504 300 C503.34 300 502.68 300 502 300 C501.9175 300.94875 501.835 301.8975 501.75 302.875 C500.59070261 310.97375362 496.35414877 318.61373622 493 326 C492.34 326 491.68 326 491 326 C490.91105469 326.68835938 490.82210938 327.37671875 490.73046875 328.0859375 C489.83526048 331.65719614 488.21424804 334.51510231 486.3125 337.625 C485.92819824 338.25873535 485.54389648 338.8924707 485.14794922 339.54541016 C481.55700701 345.33290238 477.63533154 350.87229493 473.625 356.375 C473.01825439 357.21369629 472.41150879 358.05239258 471.78637695 358.91650391 C470.9214563 360.08318604 470.9214563 360.08318604 470.0390625 361.2734375 C469.52553223 361.96872559 469.01200195 362.66401367 468.48291016 363.38037109 C467 365 467 365 464 366 C463.30097327 367.31665631 462.63869822 368.65304536 462 370 C459.48199632 372.97248941 456.6941177 375.68661034 453.9375 378.4375 C453.13691162 379.23647705 452.33632324 380.0354541 451.51147461 380.85864258 C441.4918471 390.67770056 430.48702069 399.17698443 418.5 406.47265625 C416.84925585 407.48115775 415.22272537 408.53054107 413.625 409.62109375 C405.05079421 415.42207985 395.69622972 419.59802852 386.32128906 423.92089844 C384.49257613 424.7710153 382.67721186 425.64984854 380.8671875 426.5390625 C372.9031134 430.40875368 364.44849945 432.79204352 355.99707031 435.35302734 C353.84650047 436.01677581 353.84650047 436.01677581 351.2421875 437.17578125 C348.70196498 438.10955643 346.6853689 438.15344965 344 438 C345.24575371 440.06516938 346.49641715 442.12708989 347.75 444.1875 C348.09804688 444.76564453 348.44609375 445.34378906 348.8046875 445.93945312 C350.4927159 448.70594412 352.22566329 451.27896652 354.265625 453.80078125 C356 456 356 456 356 458 C356.66 458 357.32 458 358 458 C359.296875 459.57421875 359.296875 459.57421875 360.75 461.6875 C363.51357306 465.50674452 366.30687896 468.09264939 370 471 C371.66666667 472.66666667 373.33333333 474.33333333 375 476 C381.18904088 481.93796417 387.66796775 486.57839276 395 491 C396.17038901 491.74042294 397.33960803 492.48269767 398.5078125 493.2265625 C405.91345418 497.88379922 413.27085846 501.61580107 421.46875 504.66796875 C424.61108858 505.85329779 427.630896 507.17586644 430.6875 508.5625 C453.02521617 517.91247272 478.07310957 520.1875399 502.00634766 520.18530273 C504.5994537 520.18747856 507.19212557 520.20566958 509.78515625 520.22460938 C518.18579324 520.25343812 526.47976898 520.02150854 534.8359375 519.11328125 C535.55713776 519.03554977 536.27833801 518.9578183 537.02139282 518.87773132 C541.509086 518.33346934 545.68317046 517.32180114 550 516 C551.47041646 515.6201284 552.94282658 515.24780404 554.41796875 514.88671875 C563.63908478 512.58095958 572.34176127 509.99611018 581 506 C581.71414063 505.69578125 582.42828125 505.3915625 583.1640625 505.078125 C607.31278384 494.76743499 628.13722242 480.37458921 648.14648438 463.55224609 C649.33960391 462.55305563 650.53842186 461.56061038 651.74414062 460.57666016 C654.28487497 458.50048621 656.38725044 456.53529947 658.5 454 C660.38595522 451.73685373 661.94388901 450.12151322 664.1875 448.3125 C667.12754755 446.12328275 667.12754755 446.12328275 669 443 C669.66 443 670.32 443 671 443 C671.33 442.01 671.66 441.02 672 440 C672.66 440 673.32 440 674 440 C674 443.63 674 447.26 674 451 C673.34 451 672.68 451 672 451 C671.91363281 452.11632812 671.82726562 453.23265625 671.73828125 454.3828125 C671.08605235 459.57551406 669.21038476 464.08028586 667.1875 468.875 C666.84396484 469.70902344 666.50042969 470.54304688 666.14648438 471.40234375 C665.45577324 473.07922968 664.76163028 474.75470639 664.06396484 476.42871094 C662.33656151 480.60333506 660.66832429 484.80148647 659 489 C658.34 489 657.68 489 657 489 C656.92523437 489.66257812 656.85046875 490.32515625 656.7734375 491.0078125 C655.72351582 495.06963072 653.77240328 498.29437048 651.625 501.875 C651.18019287 502.62096436 650.73538574 503.36692871 650.27709961 504.13549805 C642.76389614 516.52631467 634.1082313 527.61958791 624 538 C623.40074707 538.6197168 622.80149414 539.23943359 622.18408203 539.87792969 C620.23577338 541.88587541 618.2766361 543.88253971 616.3125 545.875 C615.70696289 546.49375 615.10142578 547.1125 614.47753906 547.75 C610.32700387 551.90728403 605.98927402 555.86141114 601 559 C600.34 559 599.68 559 599 559 C599 559.66 599 560.32 599 561 C587.78847713 569.57491473 573.97235001 576.57630296 561 582 C560.18402344 582.34546875 559.36804688 582.6909375 558.52734375 583.046875 C542.28477817 589.73953277 525.27577601 593.96571629 508 597 C507.09373367 597.16461227 506.18746735 597.32922455 505.2537384 597.49882507 C497.15878888 598.86946041 489.34847907 599.27989246 481.1484375 599.23046875 C479.88657623 599.23001053 478.62471497 599.22955231 477.32461548 599.2290802 C474.01487112 599.22532254 470.70532772 599.21241664 467.39562988 599.19561768 C464.68361557 599.18472243 461.97165119 599.18515139 459.25961876 599.18575573 C456.01421025 599.1854191 452.76883305 599.1765945 449.5234375 599.16796875 C448.31102386 599.16685593 447.09861023 599.1657431 445.84945679 599.16459656 C444.73043976 599.15821671 443.61142273 599.15183685 442.45849609 599.14526367 C441.47400482 599.14145187 440.48951355 599.13764008 439.47518921 599.13371277 C437 599 437 599 434 598 C431.35458629 597.70411209 428.71211906 597.43855225 426.0625 597.1875 C419.04713561 596.46723672 412.16384707 595.38918598 405.25 594 C404.41734619 593.83395264 403.58469238 593.66790527 402.72680664 593.49682617 C398.35829223 592.59199901 394.22404228 591.45117161 390 590 C388.40487786 589.54697008 386.80689451 589.10395991 385.20703125 588.66796875 C368.15921727 584.00510335 368.15921727 584.00510335 360.66796875 580.27734375 C357.96377445 578.98265629 355.21216248 577.89152553 352.41333008 576.81958008 C346.2803103 574.46958696 340.61128277 571.83123396 335.0546875 568.296875 C332.90281181 566.88707258 332.90281181 566.88707258 330.0625 565.5625 C321.87044095 561.38287804 314.34955795 555.93043212 306.8125 550.6875 C305.66140747 549.89581421 305.66140747 549.89581421 304.48706055 549.08813477 C303.77590088 548.58854248 303.06474121 548.0889502 302.33203125 547.57421875 C301.68983643 547.12651123 301.0476416 546.67880371 300.38598633 546.2175293 C299.92861084 545.81574463 299.47123535 545.41395996 299 545 C299 544.34 299 543.68 299 543 C297.68 542.67 296.36 542.34 295 542 C295 541.34 295 540.68 295 540 C294.443125 539.76619629 293.88625 539.53239258 293.3125 539.29150391 C290.41076767 537.67092071 288.37149296 535.66640575 286 533.3359375 C285.2911264 532.63970024 285.2911264 532.63970024 284.56793213 531.92939758 C283.03761404 530.4187629 281.51741831 528.89858741 280 527.375 C279.48111206 526.8552359 278.96222412 526.3354718 278.4276123 525.79995728 C270.10430326 517.43009981 262.46245192 508.90600164 256 499 C255.53207031 498.28537598 255.06414062 497.57075195 254.58203125 496.83447266 C232 461.92465022 232 461.92465022 232 452 C117.16 451.505 117.16 451.505 0 451 C0 447 0 447 1.66015625 445.31640625 C2.84931641 444.44822266 2.84931641 444.44822266 4.0625 443.5625 C8.68030538 440.05663076 13.07849334 436.38533668 17.4375 432.5625 C35.02843429 417.22863291 35.02843429 417.22863291 40 415 C40 414.34 40 413.68 40 413 C41.67535459 411.48015117 43.41705622 410.03293547 45.1875 408.625 C46.63189453 407.46871094 46.63189453 407.46871094 48.10546875 406.2890625 C51 404 51 404 53.64245576 402.23030162 C56.22178131 400.20495863 56.22178131 400.20495863 56.62099248 397.25258374 C56.61909388 396.18784794 56.61719528 395.12311213 56.61523914 394.0261116 C56.62519439 392.79547556 56.63514963 391.56483952 56.64540654 390.29691148 C56.63114132 388.92915778 56.61641334 387.56140884 56.60127258 386.19366455 C56.60345239 384.74240262 56.60782924 383.2911426 56.61421841 381.8398931 C56.62541954 377.84672698 56.60537083 373.85422907 56.58032811 369.86114812 C56.55877185 365.55715638 56.5660401 361.2532035 56.56983948 356.94917297 C56.57246353 349.49046116 56.55675222 342.03196773 56.52865028 334.57331085 C56.48804596 323.78933176 56.47499621 313.00545845 56.46871033 302.2214112 C56.45776232 284.72583533 56.42447439 267.23037591 56.37719727 249.73486328 C56.33131478 232.7377989 56.29591645 215.74076613 56.2746582 198.74365234 C56.27334459 197.69626779 56.27203097 196.64888324 56.27067754 195.56975976 C56.26415244 190.31543348 56.25783388 185.06110699 56.25161803 179.80678034 C56.19976926 136.20443956 56.11169019 92.60222578 56 49 C55.39945801 48.71785645 54.79891602 48.43571289 54.18017578 48.14501953 C51.04761603 46.49981178 48.52806753 44.18510621 45.875 41.875 C41.07684043 37.74776952 36.21681342 33.73704331 31.21875 29.8515625 C28.65280017 27.71025929 26.36292899 25.36292899 24 23 C21.97350816 21.22614773 19.93966678 19.47766089 17.875 17.75 C17.31530518 17.27691406 16.75561035 16.80382812 16.17895508 16.31640625 C13.38735087 13.96491805 10.57472824 11.6488175 7.70703125 9.390625 C6.21236328 8.20726563 6.21236328 8.20726563 4.6875 7 C3.78386719 6.29875 2.88023438 5.5975 1.94921875 4.875 C1.30597656 4.25625 0.66273437 3.6375 0 3 C0 2.01 0 1.02 0 0 Z M168 33 C168 159.72 168 286.44 168 417 C185.82 417 203.64 417 222 417 C221.3631409 411.23194025 221.3631409 411.23194025 220.70288086 405.46655273 C216.98472754 373.71161662 216.12054882 337.49813364 227 307 C227.21140625 306.35417969 227.4228125 305.70835937 227.640625 305.04296875 C228.41320589 302.690559 229.20738977 300.34574121 230 298 C230.41121094 296.75863281 230.82242188 295.51726562 231.24609375 294.23828125 C235.17729706 282.58570716 240.09386807 271.55770696 245.73828125 260.63671875 C247.14388154 258.18649372 247.14388154 258.18649372 247 256 C247.66 256 248.32 256 249 256 C250.4606285 253.35261084 251 252.10551666 251 249 C251.66 249 252.32 249 253 249 C254.2844099 247.15315159 254.2844099 247.15315159 255.5625 244.75 C259.99034079 237.10980412 265.31312383 230.07171657 271.0625 223.375 C273.21070891 221.25255332 273.21070891 221.25255332 273 219 C273.66 219 274.32 219 275 219 C276.58191818 217.51573767 276.58191818 217.51573767 278.125 215.625 C278.66382813 214.99851562 279.20265625 214.37203125 279.7578125 213.7265625 C281.19467147 212.08391572 281.19467147 212.08391572 281 210 C281.66 210 282.32 210 283 210 C284.25227484 208.52295788 285.50166522 207.04172601 286.68359375 205.5078125 C288 204 288 204 291 202 C291 201.34 291 200.68 291 200 C291.56589844 199.75507813 292.13179688 199.51015625 292.71484375 199.2578125 C295.40659057 197.77620143 297.33020063 195.98593878 299.5625 193.875 C309.16752812 185.0960603 320.12773523 178.09336669 331 171 C332.08410156 170.28457031 333.16820312 169.56914062 334.28515625 168.83203125 C341.95668933 163.91730684 349.83139829 160.25282789 358.21044922 156.76416016 C360.57499487 155.75447013 362.87582248 154.62469889 365.1875 153.5 C373.78838358 149.53138242 382.99473164 146.89307257 392 144 C389.47091624 133.19391485 386.65540983 122.68944633 381.4765625 112.82421875 C380.33015496 110.63148686 379.22797731 108.43255253 378.1484375 106.20703125 C372.37984598 94.12478165 372.37984598 94.12478165 365 83 C364.34 83 363.68 83 363 83 C362.60554688 82.12988281 362.60554688 82.12988281 362.203125 81.2421875 C358.88563061 75.05958432 353.10556116 69.74935922 348 65 C347.34 65 346.68 65 346 65 C346 64.34 346 63.68 346 63 C343.70401895 61.18641922 341.41555723 59.51693469 339 57.875 C338.28175049 57.38507568 337.56350098 56.89515137 336.82348633 56.39038086 C324.53671978 48.19072737 310.85558755 41.30678657 296.265625 38.4921875 C293.14021273 37.81321863 290.07525372 36.87864392 287 36 C247.80628689 29.81151898 207.67926971 33 168 33 Z M386 196 C385.04738281 196.7425 384.09476562 197.485 383.11328125 198.25 C376.6857553 203.38468549 370.41576886 208.78537587 365 215 C365 215.66 365 216.32 365 217 C364.34 217 363.68 217 363 217 C347.14246384 235.08804674 335.99081348 257.14114957 329 280 C328.4628001 281.54322881 327.92176409 283.0851338 327.375 284.625 C316.56530322 317.29700488 313.76709288 360.14025097 325 393 C325.37531446 395.32694964 325.71917202 397.65976685 326 400 C332.62631575 396.52678619 339.22359063 392.78754597 345 388 C345 387.34 345 386.68 345 386 C345.8353125 385.62875 345.8353125 385.62875 346.6875 385.25 C351.87514001 382.44587026 355.47446192 378.63356433 359 374 C359 373.34 359 372.68 359 372 C359.66 372 360.32 372 361 372 C363.11667611 369.69840501 364.83340524 367.05890959 366.625 364.5 C367.16261963 363.73405518 367.70023926 362.96811035 368.25415039 362.17895508 C373.31526514 354.80639357 377.33952332 347.14300956 381 339 C381.46921875 337.97519531 381.9384375 336.95039063 382.421875 335.89453125 C387.93235191 323.29186645 391.37102051 310.18307801 394.203125 296.765625 C394.60436294 294.86957903 395.00738035 292.97221306 395.50488281 291.09912109 C396.08865737 288.62412424 396.40909358 286.17248724 396.71875 283.6484375 C396.84636719 282.63265625 396.97398437 281.616875 397.10546875 280.5703125 C397.36943975 278.43240877 397.63245382 276.29438668 397.89453125 274.15625 C398.02214844 273.14304687 398.14976562 272.12984375 398.28125 271.0859375 C398.39533203 270.1582959 398.50941406 269.2306543 398.62695312 268.27490234 C399 266 399 266 400 264 C400.23995049 261.39114863 400.42148636 258.8062446 400.5546875 256.19140625 C400.59673309 255.39408585 400.63877869 254.59676544 400.68209839 253.77528381 C401.10244171 245.06204677 401.15097694 236.35341345 401.13037109 227.6315918 C401.12499697 224.93597819 401.13036522 222.24053059 401.13671875 219.54492188 C401.14043784 208.66101848 400.78018211 197.85590531 400 187 C395.16668789 187 389.82312426 193.01789404 386 196 Z " fill="#D82926" transform="translate(53,110)"/>
</svg>
